<?xml version="1.0" encoding="utf-8"?>
<!-- Generator: Adobe Illustrator 27.1.1, SVG Export Plug-In . SVG Version: 6.00 Build 0)  -->
<svg version="1.1" id="Laag_1" xmlns="http://www.w3.org/2000/svg" xmlns:xlink="http://www.w3.org/1999/xlink" x="0px" y="0px"
	 viewBox="0 0 151.4 165" style="enable-background:new 0 0 151.4 165;" xml:space="preserve">
<style type="text/css">
	.st0{fill:#FFFFFF;}
</style>
<g>
	<path id="Path_1" class="st0" d="M70.1,128.6H27.4L18,101c-1.4-4.7-3.8-9.1-7.1-12.8c-2.9-3.1-6.1-4.6-9.4-4.6h-1v-27h6.3
		c5.1,0,9.2-1.5,12.3-4.4c3.1-2.8,4.7-6.8,4.7-11c0-4.3-1.3-7.7-3.9-10.2s-6.6-3.7-12.1-3.7H0.5V0.7h12c7.7-0.1,15.4,0.6,23,2.2
		C41.2,4,46.6,6.3,51.5,9.5c4.1,2.8,7.3,6.6,9.4,11c2.2,4.8,3.3,10.1,3.1,15.4c0,4.1-0.6,8.2-1.8,12.1c-1.2,3.6-3.1,7-5.5,10
		c-2.6,3.1-5.7,5.7-9.1,7.7c-4,2.3-8.3,4.1-12.7,5.2v0.4c5.1,1.5,9.6,4.3,13.3,8.1c3.5,3.7,6.7,9.3,9.5,16.7L70.1,128.6L70.1,128.6
		L70.1,128.6z M104.5,128.5L76.6,74.5c-1.3-2.8-2.5-5.8-3.3-8.8h-0.4v-4.2h0.4c1-3.1,2.3-6,3.8-8.9l25.1-51.9h44.9l-35.7,61
		l39.2,66.9H104.5z"/>
	<g>
		<path class="st0" d="M7.4,156.8H5v6.5H0.5v-18.5h7.3c2.2,0,3.9,0.5,5.1,1.5c1.2,1,1.9,2.3,1.9,4.1c0,1.3-0.3,2.4-0.8,3.2
			c-0.5,0.8-1.3,1.5-2.4,2.1l3.9,7.5v0.2h-4.8L7.4,156.8z M5,153.4h2.8c0.8,0,1.5-0.2,1.9-0.7s0.6-1.1,0.6-1.9
			c0-0.8-0.2-1.4-0.6-1.9c-0.4-0.5-1.1-0.7-1.9-0.7H5V153.4z"/>
		<path class="st0" d="M39.6,155.5h-7v4.4h8.3v3.4H28.1v-18.5h12.8v3.4h-8.3v3.9h7V155.5z"/>
		<path class="st0" d="M59.6,156.5l-1.8,2v4.9h-4.5v-18.5h4.5v8.2l1.5-2.3l4-5.8h5.5l-6.2,8.2l6.2,10.3h-5.3L59.6,156.5z"/>
		<path class="st0" d="M95.1,144.9V157c0,1.4-0.3,2.6-0.9,3.6c-0.6,1-1.4,1.8-2.5,2.3s-2.4,0.8-3.9,0.8c-2.3,0-4-0.6-5.3-1.8
			s-2-2.8-2-4.8v-12.2H85v12.3c0.1,2,1,3,2.8,3c0.9,0,1.6-0.3,2.1-0.8s0.7-1.3,0.7-2.5v-12.1H95.1z"/>
		<path class="st0" d="M123.1,148.3h-5.5v15h-4.5v-15h-5.4v-3.4h15.5V148.3z"/>
		<path class="st0" d="M147.1,155.5h-7v4.4h8.3v3.4h-12.7v-18.5h12.8v3.4h-8.3v3.9h7V155.5z"/>
	</g>
</g>
</svg>
